<?xml version="1.0" encoding="UTF-8" standalone="no"?>
<svg xmlns:dc="http://purl.org/dc/elements/1.1/" xmlns:cc="http://creativecommons.org/ns#" xmlns:rdf="http://www.w3.org/1999/02/22-rdf-syntax-ns#" xmlns:svg="http://www.w3.org/2000/svg" xmlns="http://www.w3.org/2000/svg" viewBox="0 0 400 600" height="206" width="360" xml:space="preserve" id="svg2" version="1.1">
  <metadata id="metadata8">
    <rdf:RDF>
      <cc:Work rdf:about="">
        <dc:format>image/svg+xml</dc:format>
        <dc:type rdf:resource="http://purl.org/dc/dcmitype/StillImage" />
      </cc:Work>
    </rdf:RDF>
  </metadata>
  <defs id="defs6">
  </defs>
  <g transform="matrix(4.8,-0,0,-4.8,-1240,2300)" id="g10">
    <g id="g12">
      <g clip-path="url(#clipPath18)" id="g14">
        <g transform="translate(301.5107,443.5272)" id="g20">
          <path id="path22" style="fill:#ffffff;fill-opacity:1;fill-rule:nonzero;stroke:none" d="m 0,0 c 0,-2.637 -4.006,-2.628 -4.045,-4.101 h 0.33 c 0.492,1.21 3.986,1.366 3.986,3.829 0,0.555 -0.207,1.031 -0.64,1.39 C -0.121,0.802 0,0.424 0,0" />
        </g>
        <g transform="translate(298.6968,443.7133)" id="g24">
          <path id="path26" style="fill:#ffffff;fill-opacity:1;fill-rule:nonzero;stroke:none" d="M 0,0 C 0.267,0 0.454,-0.05 0.597,-0.121 0.52,0.098 0.259,0.272 -0.272,0.272 c -0.4,0 -0.907,-0.024 -1.415,-0.076 -0.476,-0.069 -0.872,-0.195 -1.17,-0.416 v -0.534 c 0.306,0.392 0.802,0.586 1.442,0.678 C -0.907,-0.024 -0.4,0 0,0" />
        </g>
        <g transform="translate(301.4238,437.8456)" id="g28">
          <path id="path30" style="fill:#ffffff;fill-opacity:1;fill-rule:nonzero;stroke:none" d="M 0,0 H -5.933 V -0.272 H 0.271 V 1.691 C 0.199,1.686 0.104,1.671 0,1.652 Z" />
        </g>
        <g transform="translate(298.25,439.7889)" id="g32">
          <path id="path34" style="fill:#e8433d;fill-opacity:1;fill-rule:nonzero;stroke:none" d="M 0,0 C 1.886,0 2.987,0.349 3.445,0.382 V -1.581 H -2.759 V 0 c 0,2.519 4.111,2.824 4.111,4.024 0,0.284 -0.262,0.534 -0.905,0.534 -0.4,0 -0.907,-0.023 -1.415,-0.076 C -1.608,4.39 -2.104,4.196 -2.411,3.804 V 6.198 C -1.778,5.974 -1.063,6.162 0.36,6.162 2.616,6.162 3.532,5.3 3.532,4.101 3.532,1.464 -0.473,1.472 -0.513,0 Z" />
        </g>
        <g transform="translate(261.7139,448.725)" id="g36">
          <path id="path38" style="fill:#e8433d;fill-opacity:1;fill-rule:nonzero;stroke:none" d="M 0,0 -1.269,0.676 -0.428,1.305 -1.224,2.811 -2.358,2.398 -1.896,3.441 -2.953,4.024 -3.612,3.062 -3.68,4.234 -4.93,4.311 -4.948,2.398 -6.711,3.802 -8.073,2.662 -7.687,1.407 -9.088,1.171 l 0.323,-1.057 1.334,-0.519 -1.085,-0.83 0.829,-0.779 1.067,0.348 -0.701,-1.04 1.971,-0.945 0.762,1.174 0.828,-1.319 1.705,0.946 -0.284,1.499 1.46,-0.663 z m -4.634,-0.448 c -0.595,0.148 -1.001,0.907 -0.674,1.413 0.118,0.184 0.31,0.293 0.527,0.336 0.485,0.098 1.094,-0.128 1.278,-0.556 0.256,-0.595 -0.458,-1.361 -1.131,-1.193" />
        </g>
        <g transform="translate(344.3184,448.725)" id="g40">
          <path id="path42" style="fill:#e8433d;fill-opacity:1;fill-rule:nonzero;stroke:none" d="M 0,0 -1.269,0.676 -0.428,1.305 -1.224,2.811 -2.357,2.398 -1.896,3.441 -2.952,4.024 -3.611,3.062 -3.68,4.234 -4.93,4.311 -4.947,2.398 -6.711,3.802 -8.072,2.662 -7.687,1.407 -9.088,1.171 l 0.323,-1.057 1.334,-0.519 -1.085,-0.83 0.829,-0.779 1.068,0.348 -0.701,-1.04 1.97,-0.945 0.762,1.174 0.828,-1.319 1.705,0.946 -0.284,1.499 1.46,-0.663 z m -4.634,-0.448 c -0.595,0.148 -1.001,0.907 -0.674,1.413 0.119,0.184 0.31,0.293 0.528,0.336 0.484,0.098 1.093,-0.128 1.277,-0.556 0.256,-0.595 -0.458,-1.361 -1.131,-1.193" />
        </g>
        <g transform="translate(298.6372,448.6927)" id="g44">
          <path id="path46" style="fill:#e8433d;fill-opacity:1;fill-rule:nonzero;stroke:none" d="M 0,0 C 1.567,0 2.838,0.361 2.838,0.806 2.838,1.25 1.567,1.611 0,1.611 -1.568,1.611 -2.839,1.25 -2.839,0.806 -2.839,0.361 -1.568,0 0,0 m -38.425,-8.903 c -0.133,-0.069 -0.298,-0.018 -0.368,0.114 -0.07,0.133 -0.019,0.298 0.114,0.368 2.446,1.287 4.955,2.452 7.519,3.488 2.552,1.032 5.16,1.938 7.813,2.712 3.084,0.901 6.213,1.614 9.37,2.143 2.931,0.491 5.888,0.825 8.859,1.003 0.095,0.238 0.328,0.406 0.599,0.406 0.356,0 0.645,-0.289 0.645,-0.645 0,-0.355 -0.289,-0.644 -0.645,-0.644 -0.245,0 -0.459,0.137 -0.567,0.34 -2.95,-0.177 -5.887,-0.508 -8.802,-0.997 -3.139,-0.526 -6.247,-1.235 -9.308,-2.128 -2.631,-0.768 -5.222,-1.668 -7.763,-2.695 -2.543,-1.029 -5.036,-2.186 -7.466,-3.465 m 76.849,0 c 0.133,-0.069 0.297,-0.018 0.368,0.114 0.071,0.133 0.018,0.298 -0.115,0.368 -2.444,1.287 -4.955,2.452 -7.517,3.488 -2.552,1.032 -5.161,1.938 -7.814,2.712 -3.085,0.901 -6.214,1.614 -9.371,2.143 -2.93,0.491 -5.888,0.825 -8.858,1.003 -0.095,0.238 -0.327,0.406 -0.6,0.406 -0.355,0 -0.643,-0.289 -0.643,-0.645 0,-0.355 0.288,-0.644 0.643,-0.644 0.246,0 0.461,0.137 0.569,0.34 2.95,-0.177 5.887,-0.508 8.799,-0.997 3.141,-0.526 6.25,-1.235 9.311,-2.128 2.631,-0.768 5.221,-1.668 7.762,-2.695 2.543,-1.029 5.037,-2.186 7.466,-3.465" />
        </g>
        <g transform="translate(305.5742,399.8226)" id="g48">
          <path id="path50" style="fill:#e8433d;fill-opacity:1;fill-rule:nonzero;stroke:none" d="m 0,0 h -89.891 l 7.65,14.881 c 0.121,-0.016 0.245,-0.024 0.368,-0.024 0.84,0 1.6,0.341 2.149,0.89 0.55,0.55 0.89,1.311 0.89,2.149 0,0.838 -0.34,1.598 -0.89,2.147 -0.549,0.551 -1.309,0.891 -2.149,0.891 -0.123,0 -0.247,-0.007 -0.368,-0.022 l -7.65,14.88 H 0 76.017 l -7.651,-14.88 c -0.121,0.015 -0.244,0.022 -0.369,0.022 -0.84,0 -1.598,-0.34 -2.148,-0.891 -0.549,-0.549 -0.89,-1.309 -0.89,-2.147 0,-0.838 0.341,-1.599 0.89,-2.149 0.55,-0.549 1.308,-0.89 2.148,-0.89 0.125,0 0.248,0.008 0.368,0.024 L 76.017,0 Z" />
        </g>
        <g transform="translate(377.8037,402.1342)" id="g52">
          <path id="path54" style="fill:#ffffff;fill-opacity:1;fill-rule:nonzero;stroke:none" d="m 0,0 -5.319,10.347 c -0.481,0.099 -0.947,0.264 -1.38,0.49 -0.482,0.249 -0.924,0.574 -1.317,0.966 -0.5,0.5 -0.892,1.091 -1.158,1.735 -0.267,0.644 -0.407,1.337 -0.407,2.046 0,0.71 0.14,1.402 0.407,2.046 0.266,0.644 0.658,1.236 1.158,1.737 h 0.002 c 0.393,0.392 0.835,0.716 1.316,0.966 0.432,0.225 0.898,0.39 1.379,0.49 L 0,31.168 h -158.334 l 5.319,-10.345 c 0.482,-0.1 0.946,-0.265 1.38,-0.49 0.479,-0.25 0.923,-0.574 1.314,-0.966 h 0.002 c 0.501,-0.501 0.892,-1.093 1.16,-1.737 0.266,-0.644 0.407,-1.336 0.407,-2.046 0,-0.709 -0.141,-1.402 -0.407,-2.046 -0.268,-0.644 -0.659,-1.235 -1.16,-1.735 -0.391,-0.392 -0.835,-0.717 -1.316,-0.966 -0.434,-0.226 -0.899,-0.391 -1.38,-0.49 L -158.334,0 Z M -4.8,10.797 0.844,-0.181 1.095,-0.67 h -0.547 -159.429 -0.548 l 0.251,0.489 5.644,10.978 0.076,0.148 0.163,0.029 c 0.473,0.083 0.928,0.237 1.351,0.457 0.42,0.218 0.809,0.502 1.151,0.844 0.442,0.44 0.784,0.956 1.016,1.516 0.232,0.562 0.355,1.17 0.355,1.793 0,0.623 -0.123,1.232 -0.355,1.792 -0.232,0.561 -0.574,1.077 -1.016,1.518 l 0.001,0.001 c -0.341,0.341 -0.731,0.625 -1.152,0.844 -0.424,0.219 -0.878,0.374 -1.35,0.456 l -0.164,0.029 -0.076,0.148 -5.644,10.978 -0.251,0.487 h 0.548 H 0.548 1.095 L 0.844,31.35 -4.8,20.372 -4.876,20.224 -5.04,20.195 c -0.472,-0.082 -0.926,-0.237 -1.351,-0.456 -0.421,-0.219 -0.81,-0.503 -1.151,-0.844 v -0.001 c -0.44,-0.441 -0.783,-0.957 -1.017,-1.518 -0.231,-0.56 -0.353,-1.169 -0.353,-1.792 0,-0.623 0.122,-1.231 0.353,-1.793 0.234,-0.56 0.577,-1.076 1.017,-1.516 0.344,-0.342 0.731,-0.626 1.151,-0.844 0.424,-0.22 0.878,-0.374 1.351,-0.457 l 0.164,-0.029 z" />
        </g>
      </g>
    </g>
    <g transform="translate(319.5234,432.4618)" id="g56">
      <path id="path58" style="fill:#e8433d;fill-opacity:1;fill-rule:nonzero;stroke:none" d="m 0,0 h -14.635 l 0.543,1.995 h 13.784 z" />
    </g>
    <g transform="translate(261.6978,401.1371)" id="g60">
      <path id="path62" style="fill:#e8433d;fill-opacity:1;fill-rule:nonzero;stroke:none" d="m 0,0 h -5.984 l -1.258,1.995 h 6.071 z" />
    </g>
    <g id="g64">
      <g clip-path="url(#clipPath70)" id="g66">
        <g transform="translate(272.8369,459.246)" id="g72">
          <path id="path74" style="fill:#ffffff;fill-opacity:1;fill-rule:nonzero;stroke:none" d="m 0,0 c -1.485,0.255 -3.172,-0.202 -4.925,-0.838 -1.217,-0.442 -1.843,-1.029 -1.605,-1.687 0.081,-0.224 0.27,-0.349 0.534,-0.413 -0.099,0.597 0.512,1.128 1.635,1.536 1.752,0.636 3.44,1.093 4.925,0.839 L -0.69,2.892 C -0.779,2.832 -0.895,2.789 -0.992,2.734 Z" />
        </g>
        <g transform="translate(272.27,452.6932)" id="g76">
          <path id="path78" style="fill:#ffffff;fill-opacity:1;fill-rule:nonzero;stroke:none" d="M 0,0 C -0.006,0.031 -0.005,0.065 -0.015,0.094 -0.591,1.682 -5.886,-0.71 -8.395,1.185 -6.533,-1.306 -1.698,0.544 0,0" />
        </g>
        <g transform="translate(276.0122,453.8011)" id="g80">
          <path id="path82" style="fill:#ffffff;fill-opacity:1;fill-rule:nonzero;stroke:none" d="M 0,0 C -0.258,0.712 -0.652,1.199 -1.117,1.552 -0.903,1.274 -0.708,0.961 -0.564,0.564 0.408,-2.114 -1.489,-4.418 -4.873,-5.647 -6.797,-6.345 -8.532,-6.54 -9.578,-7.286 l 0.283,-0.78 c 0.998,0.939 2.883,1.093 4.986,1.855 C -0.925,-4.981 0.972,-2.678 0,0" />
        </g>
        <g transform="translate(286.1616,453.3007)" id="g84">
          <path id="path86" style="fill:#ffffff;fill-opacity:1;fill-rule:nonzero;stroke:none" d="m 0,0 c -0.038,0.202 -0.083,0.412 -0.141,0.634 l -4.794,-0.793 c 0.056,-0.783 0.201,-1.437 0.324,-1.846 l -3.53,-0.584 c -0.055,-0.262 -0.09,-0.494 -0.083,-0.671 l 4.177,0.691 c -0.123,0.41 -0.268,1.063 -0.324,1.846 z" />
        </g>
      </g>
    </g>
    <g transform="translate(281.4272,455.7762)" id="g88">
      <path id="path90" style="fill:#ffffff;fill-opacity:1;fill-rule:nonzero;stroke:none" d="M 0,0 0.695,0.115 1.485,4.19 0.982,5.067 Z" />
    </g>
    <g id="g92">
      <g clip-path="url(#clipPath98)" id="g94">
        <g transform="translate(289.5767,456.0697)" id="g100">
          <path id="path102" style="fill:#ffffff;fill-opacity:1;fill-rule:nonzero;stroke:none" d="M 0,0 -4.826,8.393 -5.045,8.357 -0.564,0.564 c 0.868,-1.508 2.097,-2.959 2.326,-3.719 l -4.523,-0.748 c 0.031,-0.247 0.051,-0.471 0.058,-0.648 l 5.029,0.833 C 2.097,-2.959 0.867,-1.508 0,0" />
        </g>
        <g transform="translate(304.0537,464.2606)" id="g104">
          <path id="path106" style="fill:#ffffff;fill-opacity:1;fill-rule:nonzero;stroke:none" d="m 0,0 c 0.654,-0.78 1.02,-1.76 1.03,-2.864 0.024,-2.642 -1.899,-4.682 -5.356,-4.711 l -3.199,-0.027 c 0.201,-1.962 0.593,-3.185 0.644,-3.78 l -4.305,-0.036 c -0.042,-0.224 -0.076,-0.423 -0.085,-0.569 l 4.954,0.041 c -0.052,0.595 -0.443,1.818 -0.645,3.78 l 3.199,0.028 C -0.305,-8.11 1.618,-6.07 1.594,-3.427 1.581,-2.038 1.02,-0.835 0,0" />
        </g>
        <g transform="translate(296.9663,459.2299)" id="g108">
          <path id="path110" style="fill:#ffffff;fill-opacity:1;fill-rule:nonzero;stroke:none" d="M 0,0 -0.033,3.629 2.535,3.65 C 3.171,3.656 3.708,3.537 4.121,3.286 3.728,3.939 2.967,4.222 1.971,4.214 l -2.568,-0.021 0.038,-4.198 z" />
        </g>
        <g transform="translate(312.7988,461.9144)" id="g112">
          <path id="path114" style="fill:#ffffff;fill-opacity:1;fill-rule:nonzero;stroke:none" d="m 0,0 2.536,-0.417 c 0.503,-0.082 0.93,-0.232 1.269,-0.45 -0.337,0.547 -0.98,0.874 -1.832,1.014 l -2.537,0.417 -0.678,-4.141 0.638,-0.105 z" />
        </g>
        <g transform="translate(319.501,462.6381)" id="g116">
          <path id="path118" style="fill:#ffffff;fill-opacity:1;fill-rule:nonzero;stroke:none" d="M 0,0 C 0.858,-0.995 1.205,-2.274 0.98,-3.642 0.554,-6.248 -1.69,-7.929 -5.104,-7.368 l -3.159,0.519 c -0.136,-1.967 0.042,-3.238 -0.008,-3.833 l -4.184,0.688 c -0.063,-0.172 -0.115,-0.326 -0.146,-0.447 l 4.893,-0.804 c 0.051,0.594 -0.127,1.866 0.009,3.833 l 3.158,-0.519 c 3.415,-0.562 5.658,1.12 6.086,3.726 C 1.812,-2.565 1.28,-1.044 0,0" />
        </g>
        <g transform="translate(328.5654,460.8832)" id="g120">
          <path id="path122" style="fill:#ffffff;fill-opacity:1;fill-rule:nonzero;stroke:none" d="M 0,0 C -0.294,-0.777 -0.459,-2.085 -0.067,-3.592 L 0.326,-5.109 0.68,-4.861 0.496,-4.155 C 0.052,-2.448 0.313,-0.953 0.68,-0.25 Z" />
        </g>
        <g transform="translate(336.6094,457.9242)" id="g124">
          <path id="path126" style="fill:#ffffff;fill-opacity:1;fill-rule:nonzero;stroke:none" d="m 0,0 -7.243,-4.975 c -1.015,-2.874 -1.064,-4.767 -1.271,-5.502 l -3.912,1.44 c -0.064,-0.112 -0.118,-0.211 -0.157,-0.298 l 4.634,-1.706 c 0.207,0.735 0.256,2.628 1.268,5.502 l 7.582,5.207 z" />
        </g>
        <g transform="translate(270.5288,448.7645)" id="g128">
          <path id="path130" style="fill:#e8433d;fill-opacity:1;fill-rule:nonzero;stroke:none" d="M 0,0 C -2.102,-0.763 -3.988,-0.916 -4.986,-1.855 L -6.668,2.777 C -4.89,1.803 -2.993,1.844 -1.054,2.548 0.733,3.197 1.302,4.122 1.116,4.632 0.44,6.495 -6.741,2.86 -8.287,7.12 c -0.84,2.315 0.832,4.529 4.12,5.723 1.948,0.708 3.575,1.008 4.611,1.704 L 1.698,11.092 C 0.213,11.346 -1.474,10.89 -3.227,10.254 -4.444,9.812 -5.07,9.225 -4.832,8.566 -4.204,6.837 2.645,10.795 4.309,6.211 5.281,3.533 3.384,1.229 0,0" />
        </g>
        <g transform="translate(290.729,453.5253)" id="g132">
          <path id="path134" style="fill:#e8433d;fill-opacity:1;fill-rule:nonzero;stroke:none" d="m 0,0 -5.03,-0.832 c -0.016,0.427 -0.09,1.092 -0.289,1.851 l -4.794,-0.793 c 0.057,-0.783 0.202,-1.436 0.325,-1.845 l -4.177,-0.691 c -0.029,0.792 0.68,2.559 1.032,4.263 l 1.092,5.29 c 0.352,1.704 0.063,3.305 -0.166,4.066 l 4.855,0.802 4.826,-8.393 C -1.459,2.211 -0.229,0.76 0,0 m -9.912,2.861 3.55,0.588 -2.568,4.479 z" />
        </g>
        <g transform="translate(304.4736,462.0067)" id="g136">
          <path id="path138" style="fill:#e8433d;fill-opacity:1;fill-rule:nonzero;stroke:none" d="m 0,0 c 0.024,-2.642 -1.898,-4.683 -5.356,-4.711 l -3.2,-0.027 c 0.202,-1.962 0.594,-3.185 0.645,-3.78 l -4.955,-0.042 c 0.054,0.788 0.684,2.686 0.656,5.928 l -0.013,1.273 c -0.028,3.243 -0.693,5.13 -0.76,5.916 L -5.441,4.62 C -1.983,4.649 -0.023,2.642 0,0 m -3.701,-0.031 c -0.013,1.499 -0.988,2.09 -2.445,2.078 l -2.567,-0.021 0.038,-4.198 2.568,0.021 c 1.456,0.013 2.42,0.62 2.406,2.12" />
        </g>
        <g transform="translate(319.8711,459.6063)" id="g140">
          <path id="path142" style="fill:#e8433d;fill-opacity:1;fill-rule:nonzero;stroke:none" d="m 0,0 c -0.427,-2.606 -2.671,-4.288 -6.085,-3.726 l -3.157,0.519 C -9.379,-5.174 -9.2,-6.446 -9.252,-7.04 l -4.892,0.804 c 0.187,0.767 1.131,2.528 1.656,5.726 l 0.206,1.257 c 0.523,3.198 0.19,5.17 0.258,5.956 L -4.576,5.479 C -1.163,4.918 0.428,2.607 0,0 m -3.653,0.601 c 0.242,1.478 -0.619,2.228 -2.057,2.464 l -2.537,0.417 -0.678,-4.141 2.536,-0.416 c 1.438,-0.237 2.493,0.197 2.736,1.676" />
        </g>
        <g transform="translate(328.7559,453.559)" id="g144">
          <path id="path146" style="fill:#e8433d;fill-opacity:1;fill-rule:nonzero;stroke:none" d="m 0,0 c -1.015,-2.874 -1.062,-4.767 -1.271,-5.502 l -4.633,1.706 c 0.317,0.692 1.505,2.164 2.592,5.007 l -2.402,8.887 5.029,-1.85 C -1.051,7.545 -1.312,6.05 -0.868,4.342 l 0.393,-1.517 1.284,0.9 C 2.253,4.739 3.021,6.047 3.197,6.82 L 7.581,5.207 Z" />
        </g>
        <g transform="translate(285.9321,381.6459)" id="g148">
          <path id="path150" style="fill:#e8433d;fill-opacity:1;fill-rule:nonzero;stroke:none" d="m 0,0 c 0,-3.274 -2.558,-6.659 -6.839,-6.659 -2.92,0 -5.266,1.369 -7.281,3.315 2.145,-2.257 4.664,-3.907 7.873,-3.907 4.28,0 6.839,3.385 6.839,6.659 0,1.567 -0.72,3.203 -1.99,4.297 C -0.499,2.656 0,1.304 0,0" />
        </g>
        <g transform="translate(278.8545,379.8744)" id="g152">
          <path id="path154" style="fill:#e8433d;fill-opacity:1;fill-rule:nonzero;stroke:none" d="m 0,0 c -0.59,0 -1.182,0.211 -1.681,0.585 0.563,-0.752 1.423,-1.177 2.273,-1.177 1.46,0 2.248,1.035 2.248,2.011 0,0.445 -0.267,0.891 -0.526,1.062 L 2.087,2.634 C 2.183,2.447 2.249,2.229 2.249,2.01 2.249,1.035 1.461,0 0,0" />
        </g>
      </g>
    </g>
    <g transform="translate(268.9453,421.2147)" id="g156">
      <path id="path158" style="fill:#ffffff;fill-opacity:1;fill-rule:nonzero;stroke:none" d="M 0,0 -0.748,4.302 -1.164,3.885 -0.592,0.592 Z" />
    </g>
    <g id="g160">
      <g clip-path="url(#clipPath166)" id="g162">
        <g transform="translate(268.4507,410.6576)" id="g168">
          <path id="path170" style="fill:#ffffff;fill-opacity:1;fill-rule:nonzero;stroke:none" d="m 0,0 -0.518,-2.946 -0.423,0.424 c -0.04,0.029 -0.28,0.118 -0.853,0.118 h -5.743 c -0.017,-0.029 -0.03,-0.064 -0.048,-0.087 l -0.407,-0.505 h 6.79 c 0.573,0 0.813,-0.089 0.852,-0.118 L 0.074,-3.538 0.831,0.767 0.135,0.07 C 0.098,0.043 0.047,0.022 0,0" />
        </g>
        <g transform="translate(272.5864,408.1332)" id="g172">
          <path id="path174" style="fill:#ffffff;fill-opacity:1;fill-rule:nonzero;stroke:none" d="m 0,0 h -1.719 c -0.017,-0.028 -0.03,-0.062 -0.049,-0.086 l -0.404,-0.506 h 2.764 c 4.823,0 8.747,3.938 8.747,8.778 0,2.574 -1.119,4.886 -2.885,6.493 C 7.873,13.12 8.747,11.051 8.747,8.777 8.747,3.938 4.823,0 0,0" />
        </g>
        <g transform="translate(315.0635,429.392)" id="g176">
          <path id="path178" style="fill:#ffffff;fill-opacity:1;fill-rule:nonzero;stroke:none" d="m 0,0 c -0.496,0 -0.921,0.144 -1.262,0.373 0.364,-0.55 1.007,-0.965 1.854,-0.965 1.486,0 3.023,1.243 3.023,3.322 0,1.214 -0.541,2.432 -1.586,3.306 C 2.686,5.243 3.023,4.281 3.023,3.322 3.023,1.242 1.486,0 0,0" />
        </g>
        <g transform="translate(313.2402,433.7782)" id="g180">
          <path id="path182" style="fill:#ffffff;fill-opacity:1;fill-rule:nonzero;stroke:none" d="M 0,0 C 0.479,0 0.865,-0.073 1.185,-0.189 1.215,-0.31 1.236,-0.431 1.236,-0.55 1.236,-1.055 0.939,-1.331 0.645,-1.36 0.627,-1.362 0.61,-1.372 0.594,-1.372 0.47,-1.372 0.339,-1.323 0.247,-1.249 0.181,-1.196 0.13,-1.132 0.13,-1.057 v 0.605 l -0.492,-0.352 c -0.223,-0.158 -0.518,-0.438 -0.518,-1.028 0,-0.612 0.325,-1.253 0.898,-1.65 0.113,-0.078 0.236,-0.146 0.369,-0.205 0.27,-0.116 0.58,-0.185 0.922,-0.185 1.486,0 3.024,1.242 3.024,3.322 0,0.845 -0.261,1.693 -0.771,2.426 C 3.484,1.987 3.399,2.095 3.311,2.2 2.407,3.27 0.917,4.022 -1.135,4.022 c -4.742,0 -7.048,-3.669 -7.048,-11.219 v -5.872 c 0,-6.943 -1.699,-10.195 -3.607,-11.131 v 17.447 c 0,0.713 0.081,1.131 0.261,1.356 l 0.403,0.506 -1.045,-0.001 c -0.142,-0.238 -0.21,-0.631 -0.21,-1.269 v -18.257 c -0.172,-0.042 -0.343,-0.073 -0.514,-0.081 v 18.852 c 0,0.306 0.018,0.549 0.049,0.754 0.041,0.268 0.107,0.465 0.205,0.593 0.002,0.002 0.003,0.006 0.005,0.008 l 0.406,0.506 -2.793,-0.002 c -0.313,0.032 -0.654,0.032 -0.956,0.032 -5.39,0 -11.159,-3.766 -11.159,-9.373 0,-1.79 0.711,-3.646 2.065,-4.813 0.097,-0.083 0.2,-0.162 0.304,-0.237 0.803,-0.589 1.796,-0.954 2.979,-0.954 2.834,0 4.365,2.172 4.365,4.216 0,0.65 -0.155,1.203 -0.409,1.658 -0.074,0.131 -0.157,0.251 -0.247,0.366 -0.572,0.733 -1.44,1.119 -2.278,1.119 -1.371,0 -2.22,-1.058 -2.22,-2.04 0,-0.592 0.297,-0.87 0.519,-1.029 l 0.145,-0.105 0.347,-0.246 v 0.605 c 0,0.102 0.088,0.187 0.199,0.245 0.081,0.042 0.175,0.069 0.265,0.069 0.259,0 0.515,-0.2 0.602,-0.533 0.019,-0.072 0.04,-0.144 0.04,-0.229 0,-0.329 -0.182,-0.666 -0.518,-0.89 -0.235,-0.156 -0.543,-0.258 -0.93,-0.258 -0.268,0 -0.506,0.064 -0.727,0.157 -0.254,0.514 -0.389,1.121 -0.389,1.734 0,2.906 2.884,6.004 7.274,6.385 v -16.754 c 0,-0.793 -0.145,-1.75 -0.235,-1.927 l -0.002,0.001 -0.351,-0.352 0.468,-0.163 c 0.1,-0.034 0.202,-0.063 0.306,-0.091 0.255,-0.065 0.523,-0.109 0.776,-0.138 0.388,-0.045 0.745,-0.056 0.987,-0.056 3.847,0 8.442,2.447 8.479,14.112 v 6.139 c 0,5.701 1.302,8.243 4.219,8.243 1.169,0 1.819,-0.41 2.124,-0.911 -0.37,0.237 -0.888,0.398 -1.611,0.398 -2.917,0 -4.219,-2.543 -4.219,-8.244 v -6.139 c -0.037,-11.665 -4.63,-14.113 -8.478,-14.113 -0.376,0 -1.025,0.027 -1.637,0.166 l -0.308,-0.308 0.468,-0.163 c 0.714,-0.249 1.603,-0.287 2.07,-0.287 3.846,0 8.439,2.45 8.477,14.113 v 6.14 C -4.219,-2.542 -2.918,0 0,0 m -15.752,-7.291 c -4.717,-0.142 -7.866,-3.377 -7.866,-6.411 0,-0.78 0.215,-1.558 0.622,-2.13 -0.744,0.531 -1.135,1.586 -1.135,2.644 0,3.102 3.288,6.424 8.183,6.424 h 0.196 z" />
        </g>
        <g transform="translate(295.7124,420.3202)" id="g184">
          <path id="path186" style="fill:#ffffff;fill-opacity:1;fill-rule:nonzero;stroke:none" d="m 0,0 c 0.376,-0.504 0.616,-1.163 0.616,-1.973 0,-2.044 -1.529,-4.216 -4.364,-4.216 -1.31,0 -2.392,0.44 -3.233,1.145 0.899,-1.039 2.18,-1.737 3.825,-1.737 2.835,0 4.364,2.172 4.364,4.216 C 1.208,-1.385 0.701,-0.521 0,0" />
        </g>
      </g>
    </g>
    <g transform="translate(318.2109,425.1)" id="g188">
      <path id="path190" style="fill:#ffffff;fill-opacity:1;fill-rule:nonzero;stroke:none" d="M 0,0 0.572,-3.293 1.164,-3.885 0.416,0.417 Z" />
    </g>
    <g id="g192">
      <g clip-path="url(#clipPath198)" id="g194">
        <g transform="translate(318.8809,410.6576)" id="g200">
          <path id="path202" style="fill:#ffffff;fill-opacity:1;fill-rule:nonzero;stroke:none" d="m 0,0 -0.518,-2.947 -0.423,0.425 c -0.039,0.029 -0.279,0.118 -0.853,0.118 h -5.743 c -0.018,-0.029 -0.03,-0.063 -0.048,-0.087 L -7.99,-2.996 h 6.788 c 0.574,0 0.812,-0.089 0.852,-0.118 L 0.075,-3.539 0.83,0.766 0.134,0.07 C 0.098,0.043 0.047,0.022 0,0" />
        </g>
        <g transform="translate(328.834,410.6576)" id="g204">
          <path id="path206" style="fill:#ffffff;fill-opacity:1;fill-rule:nonzero;stroke:none" d="m 0,0 -0.517,-2.947 -0.423,0.425 c -0.039,0.029 -0.28,0.118 -0.854,0.118 h -5.742 c -0.017,-0.029 -0.03,-0.063 -0.049,-0.087 l -0.404,-0.505 h 6.788 c 0.573,0 0.812,-0.089 0.852,-0.118 L 0.075,-3.539 0.83,0.766 0.135,0.07 C 0.099,0.043 0.048,0.022 0,0" />
        </g>
        <g transform="translate(349.6367,410.6576)" id="g208">
          <path id="path210" style="fill:#ffffff;fill-opacity:1;fill-rule:nonzero;stroke:none" d="m 0,0 -0.517,-2.947 -0.424,0.425 c -0.038,0.029 -0.279,0.118 -0.853,0.118 h -5.743 c -0.017,-0.029 -0.03,-0.063 -0.048,-0.087 L -7.99,-2.996 h 6.788 c 0.574,0 0.813,-0.089 0.853,-0.118 L 0.075,-3.539 0.83,0.766 0.135,0.07 C 0.098,0.043 0.047,0.022 0,0" />
        </g>
      </g>
    </g>
    <g transform="translate(350.1318,421.2147)" id="g212">
      <path id="path214" style="fill:#ffffff;fill-opacity:1;fill-rule:nonzero;stroke:none" d="M 0,0 -0.748,4.302 -1.164,3.885 -0.592,0.592 Z" />
    </g>
    <g id="g216">
      <g clip-path="url(#clipPath222)" id="g218">
        <g transform="translate(361.9893,425.5165)" id="g224">
          <path id="path226" style="fill:#ffffff;fill-opacity:1;fill-rule:nonzero;stroke:none" d="m 0,0 -0.416,-0.416 0.57,-3.277 -0.69,0.676 c -0.237,0.177 -0.716,0.269 -1.064,0.269 h -2.312 v -12.655 c 0,-0.889 0.165,-1.232 0.264,-1.358 l 0.39,-0.503 h -3.131 c -0.017,-0.028 -0.03,-0.062 -0.048,-0.085 l -0.405,-0.506 h 4.176 l -0.392,0.502 c -0.097,0.126 -0.261,0.471 -0.261,1.358 V -3.34 h 2.311 c 0.348,0 0.826,-0.092 1.065,-0.268 l 0.689,-0.677 z" />
        </g>
        <g transform="translate(273.3486,380.9066)" id="g228">
          <path id="path230" style="fill:#ffffff;fill-opacity:1;fill-rule:nonzero;stroke:none" d="m 0,0 c -0.079,0.074 -0.187,0.202 -0.308,0.354 -1.385,1.536 -2.609,3.381 -3.703,5.057 -0.26,0.393 -1.232,1.985 -2.565,4.173 h -3.216 c 3.417,-5.475 6.773,-10.728 7.669,-11.603 0.13,-0.127 0.261,-0.252 0.394,-0.375 1.943,-1.784 4.194,-3.013 6.959,-3.013 4.281,0 6.839,3.386 6.839,6.661 0,1.192 -0.416,2.426 -1.174,3.431 C 10.813,4.793 10.728,4.896 10.638,4.999 9.687,6.089 8.298,6.84 6.571,6.84 4.057,6.84 2.087,4.988 2.087,2.624 c 0,-1.133 0.496,-1.99 1.184,-2.525 0.114,-0.089 0.232,-0.169 0.357,-0.24 0.425,-0.24 0.895,-0.378 1.364,-0.378 1.189,0 1.924,0.689 2.159,1.47 C 7.204,1.13 7.24,1.311 7.24,1.491 7.24,1.729 7.163,1.963 7.053,2.159 6.96,2.324 6.844,2.462 6.728,2.543 7.038,2.754 7.433,2.847 7.737,2.847 8.088,2.847 8.413,2.76 8.703,2.613 8.931,2.197 9.062,1.732 9.062,1.282 9.062,-0.548 7.684,-2.4 5.051,-2.4 c -1.767,0 -3.328,0.844 -4.726,2.095 -0.567,0.625 -1.099,1.31 -1.613,2.01 0.4,-0.584 0.732,-1.042 0.98,-1.351 C -0.204,0.238 -0.106,0.111 0,0 m 7.145,3.438 c -0.582,0 -1.507,-0.329 -1.507,-1.209 0,-0.084 0.021,-0.156 0.04,-0.227 -0.285,0.048 -0.554,0.31 -0.554,0.74 0,0.882 0.925,1.209 1.507,1.209 0.765,0 1.399,-0.404 1.83,-0.971 C 8.09,3.259 7.647,3.438 7.145,3.438" />
        </g>
        <g transform="translate(255.1665,409.1508)" id="g232">
          <path id="path234" style="fill:#ffffff;fill-opacity:1;fill-rule:nonzero;stroke:none" d="m 0,0 c -0.297,0.372 -0.6,0.737 -0.911,1.081 -0.065,0.072 -0.13,0.148 -0.196,0.218 -0.125,0.134 -0.252,0.258 -0.38,0.383 3.091,1.786 5.15,5.506 5.15,9.366 0,3.164 -1.353,5.979 -3.56,7.992 1.85,-1.957 2.968,-4.533 2.968,-7.4 0,-3.871 -2.07,-7.602 -5.175,-9.382 -0.192,0.166 -0.383,0.332 -0.578,0.475 3.141,1.764 5.239,5.522 5.239,9.421 0,2.689 -0.98,5.124 -2.627,7.031 -0.13,0.151 -0.27,0.294 -0.409,0.439 -2.186,2.272 -5.372,3.691 -8.989,3.691 -5.39,0 -11.161,-3.766 -11.161,-9.373 0,-1.79 0.712,-3.646 2.066,-4.812 0.098,-0.084 0.201,-0.162 0.305,-0.238 0.801,-0.589 1.794,-0.954 2.978,-0.954 2.835,0 4.365,2.172 4.365,4.216 0,0.65 -0.154,1.203 -0.409,1.658 -0.073,0.131 -0.157,0.251 -0.246,0.365 -0.573,0.734 -1.44,1.12 -2.279,1.12 -1.371,0 -2.219,-1.059 -2.219,-2.04 0,-0.589 0.295,-0.869 0.517,-1.028 l 0.148,-0.105 0.345,-0.249 v 0.607 c 0,0.108 0.09,0.191 0.2,0.246 0.085,0.042 0.181,0.069 0.263,0.069 0.26,0 0.516,-0.201 0.603,-0.534 0.019,-0.072 0.04,-0.143 0.04,-0.228 0,-0.328 -0.181,-0.667 -0.518,-0.891 -0.235,-0.156 -0.544,-0.259 -0.929,-0.259 -0.269,0 -0.506,0.066 -0.728,0.159 -0.253,0.512 -0.388,1.122 -0.388,1.733 0,3.103 3.288,6.425 8.183,6.425 2.374,0 4.499,-0.802 6.09,-2.119 1.124,-1.362 1.792,-3.06 1.792,-4.929 0,-2.29 -0.974,-4.623 -2.543,-6.091 C -4.105,5.022 -5.451,4.484 -6.918,4.499 v 6.997 c 0,0.888 0.164,1.232 0.262,1.358 l 0.391,0.503 H -7.303 C -7.398,13.182 -7.51,12.823 -7.51,12.088 V 4.522 L -7.603,4.528 V 1.932 L -7.574,1.619 -7.51,1.613 v -3.118 c 0,-0.888 0.165,-1.232 0.262,-1.358 l 0.391,-0.501 h -3.131 c -0.016,-0.029 -0.03,-0.064 -0.048,-0.087 l -0.405,-0.505 h 4.176 l -0.391,0.501 c -0.098,0.126 -0.262,0.47 -0.262,1.359 V 1.092 L -7.06,1.105 -7.089,1.417 v 0.177 c 0.054,0.003 0.111,0.005 0.171,0.009 0.056,0.002 0.111,0.004 0.162,0.007 0.101,0.004 0.184,0.009 0.209,0.009 0.016,0 0.033,-0.005 0.049,-0.005 0.834,-0.026 1.761,-0.711 2.703,-1.716 -0.782,0.735 -1.544,1.207 -2.238,1.207 -0.025,0 -0.108,-0.004 -0.209,-0.009 C -6.323,1.092 -6.413,1.087 -6.498,1.084 V 0.825 l 0.03,-0.311 0.311,-0.03 c 0.095,0 0.327,0.011 0.507,0.02 0.101,0.005 0.184,0.01 0.209,0.01 0.6,0 1.251,-0.351 1.922,-0.922 1.127,-1.27 2.263,-2.939 3.272,-4.425 L 0.114,-5.361 C 0.585,-6.051 2.17,-8.62 4.173,-11.863 H 7.46 C 4.484,-7 1.366,-1.962 0,0 m -8.924,19.794 c -4.895,0 -8.183,-3.322 -8.183,-6.425 0,-0.78 0.214,-1.558 0.622,-2.129 -0.744,0.53 -1.136,1.586 -1.136,2.643 0,3.103 3.288,6.425 8.183,6.425 2.8,0 5.261,-1.109 6.897,-2.876 -1.617,1.467 -3.864,2.362 -6.383,2.362" />
        </g>
        <g transform="translate(269.9292,385.7269)" id="g236">
          <path id="path238" style="fill:#ffffff;fill-opacity:1;fill-rule:nonzero;stroke:none" d="m 0,0 c 0.66,-1.013 1.372,-2.083 2.131,-3.115 -1.228,1.786 -3.083,4.704 -5.06,7.879 H -2.94 C -1.436,2.306 -0.313,0.472 0,0" />
        </g>
        <g transform="translate(257.8213,405.4115)" id="g240">
          <path id="path242" style="fill:#ffffff;fill-opacity:1;fill-rule:nonzero;stroke:none" d="M 0,0 C -0.6,0.905 -1.296,1.936 -2.046,2.941 -0.597,0.838 1.812,-2.987 4.244,-6.912 2.127,-3.451 0.437,-0.67 0,0" />
        </g>
        <g transform="translate(266.9897,390.4906)" id="g244">
          <path id="path246" style="fill:#ffffff;fill-opacity:1;fill-rule:nonzero;stroke:none" d="M 0,0 H -0.217 C 1.116,-2.188 2.088,-3.78 2.348,-4.173 3.442,-5.849 4.666,-7.693 6.051,-9.23 5.803,-8.921 5.471,-8.462 5.071,-7.879 4.312,-6.846 3.6,-5.775 2.94,-4.764 2.627,-4.292 1.504,-2.458 0,0" />
        </g>
        <g transform="translate(254.5864,409.9222)" id="g248">
          <path id="path250" style="fill:#ffffff;fill-opacity:1;fill-rule:nonzero;stroke:none" d="M 0,0 C 0.119,-0.128 0.321,-0.398 0.58,-0.771 0.789,-1.033 0.988,-1.301 1.189,-1.569 0.637,-0.768 0.22,-0.21 0,0" />
        </g>
        <g transform="translate(262.8066,397.2875)" id="g252">
          <path id="path254" style="fill:#ffffff;fill-opacity:1;fill-rule:nonzero;stroke:none" d="m 0,0 c -0.252,0.412 -0.499,0.815 -0.741,1.212 -2.432,3.926 -4.841,7.75 -6.291,9.853 -0.2,0.27 -0.399,0.537 -0.608,0.798 C -6.274,9.901 -3.156,4.862 -0.18,0 Z" />
        </g>
        <g transform="translate(262.8145,397.2875)" id="g256">
          <path id="path258" style="fill:#ffffff;fill-opacity:1;fill-rule:nonzero;stroke:none" d="M 0,0 C -0.249,0.404 -0.499,0.808 -0.749,1.212 -0.507,0.815 -0.26,0.412 -0.008,0 Z" />
        </g>
        <g transform="translate(240.4009,416.5746)" id="g260">
          <path id="path262" style="fill:#ffffff;fill-opacity:1;fill-rule:nonzero;stroke:none" d="m 0,0 c -1.31,0 -2.392,0.441 -3.233,1.146 0.899,-1.04 2.18,-1.738 3.825,-1.738 1.449,0 2.554,0.57 3.292,1.398 v -9.221 c 0,-0.712 -0.081,-1.13 -0.26,-1.355 L 3.22,-10.274 H 4.143 4.94 7.396 L 7.004,-9.772 C 6.907,-9.646 6.742,-9.303 6.742,-8.415 V 5.178 c 0,0.317 0.022,0.562 0.053,0.755 0.054,0.335 0.139,0.506 0.202,0.591 0.002,0.005 0.005,0.01 0.007,0.013 L 7.396,7.039 H 3.22 L 3.624,6.533 C 3.694,6.445 3.745,6.316 3.786,6.164 3.774,6.172 3.761,6.181 3.749,6.189 3.764,6.168 3.781,6.149 3.796,6.128 3.853,5.894 3.884,5.589 3.884,5.178 V 2.261 C 3.228,0.991 1.912,0 0,0" />
        </g>
        <g transform="translate(259.7598,409.2728)" id="g264">
          <path id="path266" style="fill:#ffffff;fill-opacity:1;fill-rule:nonzero;stroke:none" d="m 0,0 -0.406,-0.507 h 0.924 0.798 5.067 c 0.574,0 0.813,-0.088 0.853,-0.116 L 7.66,-1.048 8.056,1.206 8.2,2.028 8.416,3.257 8.009,2.85 8.011,7.505 7.451,6.757 C 7.444,6.75 7.431,6.743 7.418,6.734 L 7.417,3.567 C 7.426,3.561 7.446,3.553 7.452,3.546 L 8,2.841 7.72,2.561 C 7.478,2.385 6.999,2.292 6.651,2.292 H 4.223 v 1.462 h 2.073 c 0.463,0 0.763,-0.052 0.948,-0.109 L 6.903,4.081 6.904,6.594 V 7.409 L 6.905,8.61 6.345,7.862 C 6.266,7.778 5.809,7.657 5.191,7.657 H 4.223 v 5.247 h 3.206 c 0.348,0 0.825,-0.092 1.06,-0.266 L 8.08,13.048 7.615,15.719 7.484,16.474 7.332,17.35 6.908,16.926 C 6.896,16.913 6.772,16.808 6.115,16.808 h -6.51 l 0.392,-0.503 C 0.128,16.138 0.26,15.659 0.26,15.066 V 1.355 C 0.26,0.642 0.179,0.224 0,0 m 3.118,14.01 h 3.206 c 0.347,0 0.826,-0.093 1.061,-0.267 L 7.898,13.23 c -0.235,0.174 -0.713,0.266 -1.06,0.266 H 3.632 V 7.657 H 3.118 Z m 0,-9.151 h 2.073 c 0.729,0 1.09,-0.125 1.155,-0.208 L 6.674,4.23 C 6.493,4.289 6.186,4.345 5.705,4.345 H 3.632 V 2.292 H 3.118 Z" />
        </g>
        <g transform="translate(269.7129,409.1527)" id="g268">
          <path id="path270" style="fill:#ffffff;fill-opacity:1;fill-rule:nonzero;stroke:none" d="m 0,0 -0.404,-0.506 h 0.922 0.798 1.043 c 4.823,0 8.747,3.939 8.747,8.777 0,2.148 -0.776,4.116 -2.057,5.643 -0.087,0.104 -0.181,0.201 -0.272,0.299 -1.599,1.739 -3.881,2.834 -6.418,2.834 h -2.752 l 0.391,-0.503 C 0.128,16.377 0.26,15.897 0.26,15.306 V 1.355 C 0.26,0.643 0.179,0.225 0,0 M 8.218,8.271 C 8.218,5.717 6.55,3.501 4.223,2.709 V 12.963 C 5.267,12.834 6.22,12.425 7.014,11.818 7.768,10.831 8.218,9.6 8.218,8.271 m -5.1,5.799 C 4.571,13.89 5.853,13.169 6.769,12.122 5.912,12.888 4.831,13.408 3.632,13.556 V 2.539 C 3.463,2.501 3.292,2.47 3.118,2.446 Z" />
        </g>
        <g transform="translate(316.5723,408.766)" id="g272">
          <path id="path274" style="fill:#ffffff;fill-opacity:1;fill-rule:nonzero;stroke:none" d="M 0,0 C 0.574,0 0.814,-0.088 0.854,-0.116 L 1.277,-0.542 1.674,1.713 1.817,2.537 2.032,3.763 1.627,3.358 1.629,8.009 1.068,7.265 C 1.062,7.258 1.049,7.25 1.036,7.241 L 1.035,4.074 C 1.045,4.067 1.064,4.059 1.069,4.053 L 1.618,3.349 1.338,3.067 C 1.096,2.892 0.617,2.799 0.27,2.799 h -2.428 v 1.462 h 2.072 c 0.465,0 0.765,-0.053 0.948,-0.111 L 0.521,4.588 0.522,7.101 V 7.917 9.114 L -0.037,8.37 C -0.116,8.285 -0.572,8.164 -1.191,8.164 h -0.967 v 5.247 h 3.205 c 0.348,0 0.825,-0.092 1.06,-0.266 l -0.41,0.41 -0.464,2.671 -0.13,0.754 -0.154,0.876 -0.424,-0.423 C 0.514,17.419 0.39,17.314 -0.268,17.314 h -6.508 l 0.39,-0.502 c 0.131,-0.167 0.264,-0.647 0.264,-1.239 V 1.862 c 0,-0.714 -0.081,-1.132 -0.261,-1.355 L -6.786,0 h 0.922 0.798 z m -3.265,14.517 h 3.205 c 0.348,0 0.828,-0.093 1.063,-0.267 L 1.516,13.737 C 1.28,13.91 0.803,14.002 0.454,14.002 H -2.751 V 8.164 h -0.514 z m 0,-9.151 h 2.074 c 0.728,0 1.089,-0.125 1.155,-0.208 L 0.294,4.735 C 0.112,4.796 -0.195,4.852 -0.678,4.852 H -2.751 V 2.799 h -0.514 z" />
        </g>
        <g transform="translate(326.5264,408.766)" id="g276">
          <path id="path278" style="fill:#ffffff;fill-opacity:1;fill-rule:nonzero;stroke:none" d="M 0,0 C 0.574,0 0.814,-0.088 0.854,-0.116 L 1.277,-0.542 1.673,1.713 1.817,2.537 2.032,3.763 1.337,3.067 C 1.096,2.892 0.617,2.799 0.27,2.799 h -2.429 v 11.668 c 0,0.574 0.098,1.054 0.249,1.223 l 0.46,0.518 H -2.543 C -2.669,16.001 -2.751,15.575 -2.751,15.059 V 2.799 h -0.514 v 12.774 c 0,0.235 0.02,0.448 0.05,0.635 0.043,0.272 0.111,0.489 0.199,0.588 l 0.004,0.005 0.457,0.513 h -4.221 l 0.39,-0.502 c 0.131,-0.167 0.263,-0.647 0.263,-1.239 V 1.862 c 0,-0.714 -0.081,-1.132 -0.26,-1.355 L -6.788,0 h 0.924 0.798 z" />
        </g>
        <g transform="translate(335.6875,408.766)" id="g280">
          <path id="path282" style="fill:#ffffff;fill-opacity:1;fill-rule:nonzero;stroke:none" d="m 0,0 -0.391,0.502 c -0.165,0.213 -0.157,0.642 0.026,1.281 L 3.15,15.37 c 0.087,0.31 0.202,0.597 0.331,0.838 0.126,0.239 0.267,0.434 0.414,0.563 l 0.031,0.03 0.57,0.513 H 0.008 L 0.4,16.812 C 0.564,16.601 0.556,16.171 0.372,15.526 l -2.067,-8.759 -1.888,7.667 c -0.181,0.631 -0.188,1.06 -0.024,1.273 l 0.391,0.501 H -4.24 c -0.112,-0.23 -0.095,-0.622 0.065,-1.182 L -1.914,5.842 -2.103,5.037 -4.688,15.54 c -0.076,0.261 -0.114,0.479 -0.129,0.668 -0.022,0.266 0.007,0.468 0.099,0.593 0.002,0.003 0.003,0.009 0.005,0.011 l 0.391,0.502 H -8.87 l 0.571,-0.513 0.032,-0.03 c 0.067,-0.06 0.134,-0.137 0.2,-0.23 0.196,-0.275 0.387,-0.683 0.541,-1.166 l 3.52,-13.599 c 0.18,-0.632 0.188,-1.061 0.024,-1.274 L -4.373,0 h 0.91 0.692 z" />
        </g>
        <g transform="translate(347.3291,408.766)" id="g284">
          <path id="path286" style="fill:#ffffff;fill-opacity:1;fill-rule:nonzero;stroke:none" d="M 0,0 C 0.574,0 0.813,-0.088 0.853,-0.116 L 1.276,-0.542 1.673,1.713 1.817,2.537 2.032,3.763 1.626,3.358 1.628,8.009 1.067,7.265 C 1.061,7.258 1.048,7.25 1.036,7.241 L 1.035,4.074 C 1.044,4.067 1.063,4.059 1.068,4.053 L 1.618,3.349 1.337,3.067 C 1.095,2.892 0.617,2.799 0.269,2.799 h -2.428 v 1.462 h 2.073 c 0.464,0 0.764,-0.053 0.947,-0.111 L 0.521,4.588 V 7.101 7.917 9.114 L -0.038,8.37 C -0.117,8.285 -0.573,8.164 -1.192,8.164 h -0.967 v 5.247 h 3.205 c 0.347,0 0.826,-0.092 1.06,-0.266 l -0.41,0.41 -0.464,2.671 -0.13,0.754 -0.153,0.876 -0.425,-0.423 C 0.513,17.419 0.389,17.314 -0.269,17.314 h -6.508 l 0.39,-0.502 c 0.079,-0.101 0.154,-0.321 0.204,-0.604 h -1.094 c -0.278,-0.274 -0.536,-0.77 -0.701,-1.353 L -11.492,1.271 c -0.183,-0.642 -0.191,-1.07 -0.027,-1.283 l 0.392,-0.501 h -3.351 c -0.013,-0.029 -0.021,-0.066 -0.041,-0.09 l -0.39,-0.502 h 4.373 l -0.392,0.502 c -0.163,0.212 -0.155,0.641 0.028,1.282 l 3.514,13.585 c 0.173,0.613 0.449,1.139 0.743,1.402 l 0.479,0.432 c 0.023,-0.161 0.041,-0.334 0.041,-0.525 V 1.862 c 0,-0.714 -0.081,-1.132 -0.26,-1.355 L -6.787,0 h 0.922 0.798 z m -3.266,14.517 h 3.205 c 0.349,0 0.828,-0.093 1.063,-0.267 L 1.515,13.737 C 1.279,13.91 0.802,14.002 0.454,14.002 H -2.751 V 8.164 h -0.515 z m 0,-9.151 h 2.074 c 0.729,0 1.089,-0.125 1.155,-0.208 L 0.293,4.735 C 0.111,4.796 -0.196,4.852 -0.679,4.852 H -2.751 V 2.799 h -0.515 z" />
        </g>
        <g transform="translate(358.2178,408.766)" id="g288">
          <path id="path290" style="fill:#ffffff;fill-opacity:1;fill-rule:nonzero;stroke:none" d="m 0,0 -0.392,0.502 c -0.097,0.127 -0.262,0.472 -0.262,1.36 v 12.655 h 2.311 c 0.349,0 0.827,-0.093 1.065,-0.269 L 3.412,13.572 2.949,16.226 2.818,16.98 2.666,17.855 2.242,17.433 C 2.229,17.419 2.105,17.314 1.449,17.314 h -7.064 c -0.656,0 -0.782,0.106 -0.794,0.119 l -0.424,0.421 -0.743,-4.292 0.694,0.695 c 0.009,0.006 0.023,0.011 0.031,0.016 0.16,0.112 0.451,0.192 0.734,0.225 0.101,0.012 0.202,0.019 0.294,0.019 h 2.31 V 14.002 H -5.31 c -0.301,0 -0.685,-0.07 -0.925,-0.188 l -0.237,-1.358 0.697,0.695 c 0.203,0.162 0.697,0.26 1.057,0.26 h 1.205 V 1.862 c 0,-0.714 -0.08,-1.132 -0.258,-1.355 L -4.177,0 h 0.923 0.799 z" />
        </g>
        <g transform="translate(246.564,394.6615)" id="g292">
          <path id="path294" style="fill:#e8433d;fill-opacity:1;fill-rule:nonzero;stroke:none" d="m 0,0 -1.183,-3.111 h -0.691 l -0.863,2.269 -0.864,-2.269 h -0.69 L -5.475,0 C -5.68,0.54 -5.996,1.082 -6.027,1.347 h 1.601 C -4.457,1.082 -4.456,0.54 -4.25,0 l 0.478,-1.254 0.591,1.555 c -0.19,0.432 -0.403,0.83 -0.429,1.046 h 1.602 C -2.039,1.082 -2.037,0.54 -1.83,0.001 l 0.456,-1.192 0.413,1.182 c 0.191,0.545 0.181,1.091 0.15,1.356 H 0.552 C 0.521,1.082 0.205,0.54 0,0" />
        </g>
        <g transform="translate(251.0493,394.9408)" id="g296">
          <path id="path298" style="fill:#e8433d;fill-opacity:1;fill-rule:nonzero;stroke:none" d="m 0,0 c -0.264,0.019 -0.898,0.22 -1.984,0.22 h -0.327 v -0.879 c 1.029,0.005 1.634,0.088 1.89,0.106 v -1.036 c -0.256,0.019 -0.861,0.102 -1.89,0.107 V -2.48 h 0.327 c 1.086,0 1.72,0.201 1.984,0.219 v -1.067 h -3.629 c 0.019,0.264 0.22,0.897 0.22,1.983 v 0.427 c 0,1.088 -0.201,1.722 -0.22,1.985 H 0 Z" />
        </g>
        <g transform="translate(255.7393,394.0238)" id="g300">
          <path id="path302" style="fill:#e8433d;fill-opacity:1;fill-rule:nonzero;stroke:none" d="m 0,0 v -2.411 h -0.917 l -1.99,2.553 v -0.569 c 0,-1.087 0.201,-1.72 0.22,-1.984 h -1.357 c 0.019,0.264 0.22,0.897 0.22,1.984 V 0 c 0,1.086 -0.201,1.72 -0.22,1.983 h 1.137 l 1.99,-2.579 V 0 c 0,1.086 -0.201,1.72 -0.22,1.983 H 0.22 C 0.201,1.72 0,1.086 0,0" />
        </g>
        <g transform="translate(260.9126,393.8734)" id="g304">
          <path id="path306" style="fill:#e8433d;fill-opacity:1;fill-rule:nonzero;stroke:none" d="m 0,0 v -0.126 c 0,-1.312 -0.904,-2.135 -2.16,-2.135 h -2.103 c 0.019,0.264 0.219,0.899 0.219,1.985 V 0.15 c 0,1.086 -0.2,1.72 -0.219,1.985 H -2.16 C -0.904,2.135 0,1.312 0,0 m -1.162,0 c 0,0.81 -0.339,1.274 -1.061,1.274 H -2.951 V -1.4 h 0.728 c 0.722,0 1.061,0.463 1.061,1.274 z" />
        </g>
        <g transform="translate(263.5376,393.4906)" id="g308">
          <path id="path310" style="fill:#e8433d;fill-opacity:1;fill-rule:nonzero;stroke:none" d="m 0,0 c 0.012,-1.021 0.201,-1.624 0.219,-1.878 h -1.532 c 0.018,0.254 0.207,0.856 0.219,1.876 l -1.65,2.52 h 1.662 C -1.113,2.253 -1.029,1.752 -0.717,1.267 l 0.277,-0.433 0.277,0.433 c 0.312,0.485 0.396,0.986 0.365,1.251 h 1.449 z" />
        </g>
        <g transform="translate(267.1758,393.6478)" id="g312">
          <path id="path314" style="fill:#e8433d;fill-opacity:1;fill-rule:nonzero;stroke:none" d="M 0,0 C 0,0.478 0.322,0.812 0.773,0.812 1.223,0.812 1.532,0.478 1.532,0 1.532,-0.464 1.236,-0.811 0.76,-0.811 0.309,-0.811 0,-0.464 0,0" />
        </g>
        <g transform="translate(273.2349,393.4906)" id="g316">
          <path id="path318" style="fill:#e8433d;fill-opacity:1;fill-rule:nonzero;stroke:none" d="m 0,0 c 0.012,-1.021 0.201,-1.624 0.219,-1.878 h -1.532 c 0.018,0.254 0.207,0.856 0.219,1.876 l -1.65,2.52 h 1.662 C -1.113,2.253 -1.029,1.752 -0.717,1.267 l 0.277,-0.433 0.277,0.433 c 0.312,0.485 0.396,0.986 0.365,1.251 h 1.449 z" />
        </g>
        <g transform="translate(278.8779,394.9408)" id="g320">
          <path id="path322" style="fill:#e8433d;fill-opacity:1;fill-rule:nonzero;stroke:none" d="m 0,0 c -0.264,0.019 -0.898,0.22 -1.984,0.22 h -0.327 v -0.879 c 1.029,0.005 1.634,0.088 1.89,0.106 v -1.036 c -0.256,0.019 -0.861,0.102 -1.89,0.107 V -2.48 h 0.327 c 1.086,0 1.72,0.201 1.984,0.219 v -1.067 h -3.629 c 0.019,0.264 0.22,0.897 0.22,1.983 v 0.427 c 0,1.088 -0.201,1.722 -0.22,1.985 H 0 Z" />
        </g>
        <g transform="translate(283.5947,391.6127)" id="g324">
          <path id="path326" style="fill:#e8433d;fill-opacity:1;fill-rule:nonzero;stroke:none" d="M 0,0 H -1.537 C -1.506,0.264 -1.545,0.789 -1.8,1.308 L -1.892,1.494 H -2.738 C -2.692,0.703 -2.548,0.221 -2.532,0 H -4.07 c 0.018,0.264 0.219,0.897 0.219,1.984 v 0.427 c 0,1.086 -0.201,1.72 -0.219,1.984 h 2.568 c 0.891,0 1.387,-0.741 1.387,-1.469 0,-0.52 -0.253,-1.029 -0.722,-1.268 L -0.654,1.301 C -0.391,0.786 -0.031,0.264 0,0 m -1.276,2.926 c 0,0.345 -0.214,0.609 -0.553,0.609 H -2.752 V 2.316 h 0.923 c 0.339,0 0.553,0.265 0.553,0.61" />
        </g>
        <g transform="translate(285.3633,393.597)" id="g328">
          <path id="path330" style="fill:#e8433d;fill-opacity:1;fill-rule:nonzero;stroke:none" d="M 0,0 C 0,-1.086 0.201,-1.722 0.22,-1.984 H -1.318 C -1.3,-1.722 -1.099,-1.086 -1.099,0 v 0.427 c 0,1.086 -0.201,1.719 -0.219,1.983 H 0.22 C 0.201,2.146 0,1.513 0,0.427 Z" />
        </g>
        <g transform="translate(287.8535,393.6478)" id="g332">
          <path id="path334" style="fill:#e8433d;fill-opacity:1;fill-rule:nonzero;stroke:none" d="M 0,0 C 0,0.478 0.322,0.812 0.773,0.812 1.223,0.812 1.533,0.478 1.533,0 1.533,-0.464 1.236,-0.811 0.76,-0.811 0.309,-0.811 0,-0.464 0,0" />
        </g>
        <g transform="translate(292.769,393.597)" id="g336">
          <path id="path338" style="fill:#e8433d;fill-opacity:1;fill-rule:nonzero;stroke:none" d="m 0,0 c 0,-1.086 0.201,-1.722 0.22,-1.984 h -1.539 c 0.019,0.262 0.22,0.898 0.22,1.984 v 0.427 c 0,1.086 -0.201,1.719 -0.22,1.983 H 0.22 C 0.201,2.146 0,1.513 0,0.427 Z" />
        </g>
        <g transform="translate(297.7495,391.6127)" id="g340">
          <path id="path342" style="fill:#e8433d;fill-opacity:1;fill-rule:nonzero;stroke:none" d="M 0,0 H -1.537 C -1.505,0.264 -1.545,0.789 -1.8,1.308 L -1.892,1.494 H -2.738 C -2.692,0.703 -2.548,0.221 -2.532,0 H -4.07 c 0.018,0.264 0.219,0.897 0.219,1.984 v 0.427 c 0,1.086 -0.201,1.72 -0.219,1.984 h 2.568 c 0.891,0 1.387,-0.741 1.387,-1.469 0,-0.52 -0.253,-1.029 -0.722,-1.268 L -0.654,1.301 C -0.391,0.786 -0.031,0.264 0,0 m -1.277,2.926 c 0,0.345 -0.213,0.609 -0.552,0.609 H -2.752 V 2.316 h 0.923 c 0.339,0 0.552,0.265 0.552,0.61" />
        </g>
        <g transform="translate(301.8281,394.9408)" id="g344">
          <path id="path346" style="fill:#e8433d;fill-opacity:1;fill-rule:nonzero;stroke:none" d="M 0,0 C -0.264,0.019 -0.898,0.22 -1.984,0.22 H -2.31 v -0.879 c 1.028,0.005 1.633,0.088 1.889,0.106 v -1.036 c -0.256,0.019 -0.861,0.102 -1.889,0.107 V -2.48 h 0.326 c 1.086,0 1.72,0.201 1.984,0.219 v -1.067 h -3.629 c 0.019,0.264 0.22,0.897 0.22,1.983 v 0.427 c 0,1.088 -0.201,1.722 -0.22,1.985 H 0 Z" />
        </g>
        <g transform="translate(306.5176,394.0238)" id="g348">
          <path id="path350" style="fill:#e8433d;fill-opacity:1;fill-rule:nonzero;stroke:none" d="m 0,0 v -2.411 h -0.917 l -1.989,2.553 v -0.569 c 0,-1.087 0.201,-1.72 0.219,-1.984 h -1.357 c 0.02,0.264 0.221,0.897 0.221,1.984 V 0 c 0,1.086 -0.201,1.72 -0.221,1.983 h 1.138 l 1.989,-2.579 V 0 c 0,1.086 -0.2,1.72 -0.22,1.983 H 0.221 C 0.201,1.72 0,1.086 0,0" />
        </g>
        <g transform="translate(311.0566,394.9408)" id="g352">
          <path id="path354" style="fill:#e8433d;fill-opacity:1;fill-rule:nonzero;stroke:none" d="M 0,0 C -0.264,0.019 -0.897,0.22 -1.983,0.22 H -2.31 v -0.879 c 1.029,0.005 1.633,0.088 1.889,0.106 v -1.036 c -0.256,0.019 -0.86,0.102 -1.889,0.107 V -2.48 h 0.327 c 1.086,0 1.719,0.201 1.983,0.219 v -1.067 h -3.629 c 0.02,0.264 0.221,0.897 0.221,1.983 v 0.427 c 0,1.088 -0.201,1.722 -0.221,1.985 H 0 Z" />
        </g>
        <g transform="translate(313.2832,393.6478)" id="g356">
          <path id="path358" style="fill:#e8433d;fill-opacity:1;fill-rule:nonzero;stroke:none" d="M 0,0 C 0,0.478 0.322,0.812 0.773,0.812 1.223,0.812 1.532,0.478 1.532,0 1.532,-0.464 1.236,-0.811 0.76,-0.811 0.31,-0.811 0,-0.464 0,0" />
        </g>
        <g transform="translate(318.5,394.0238)" id="g360">
          <path id="path362" style="fill:#e8433d;fill-opacity:1;fill-rule:nonzero;stroke:none" d="m 0,0 v -0.816 c 0,-1.068 -0.678,-1.659 -1.531,-1.659 -0.172,0 -0.302,0.02 -0.401,0.046 l 0.004,1.079 c 0.133,-0.091 0.295,-0.132 0.447,-0.132 0.289,0 0.395,0.189 0.395,0.477 V 0 c 0,1.086 -0.201,1.72 -0.22,1.983 H 0.221 C 0.201,1.72 0,1.086 0,0" />
        </g>
        <g transform="translate(323.6426,393.8734)" id="g364">
          <path id="path366" style="fill:#e8433d;fill-opacity:1;fill-rule:nonzero;stroke:none" d="m 0,0 v -0.126 c 0,-1.312 -1.03,-2.197 -2.286,-2.197 -1.255,0 -2.285,0.885 -2.285,2.197 V 0 c 0,1.312 1.03,2.197 2.285,2.197 C -1.03,2.197 0,1.312 0,0 m -1.225,0 c 0,0.81 -0.339,1.256 -1.061,1.256 C -3.008,1.256 -3.347,0.81 -3.347,0 v -0.126 c 0,-0.811 0.339,-1.256 1.061,-1.256 0.722,0 1.061,0.445 1.061,1.256 z" />
        </g>
        <g transform="translate(326.2676,393.4906)" id="g368">
          <path id="path370" style="fill:#e8433d;fill-opacity:1;fill-rule:nonzero;stroke:none" d="m 0,0 c 0.012,-1.021 0.2,-1.624 0.219,-1.878 h -1.532 c 0.018,0.254 0.206,0.856 0.218,1.876 l -1.65,2.52 h 1.663 C -1.113,2.253 -1.029,1.752 -0.718,1.267 L -0.44,0.834 -0.163,1.267 C 0.148,1.752 0.232,2.253 0.202,2.518 H 1.65 Z" />
        </g>
        <g transform="translate(329.9053,393.6478)" id="g372">
          <path id="path374" style="fill:#e8433d;fill-opacity:1;fill-rule:nonzero;stroke:none" d="M 0,0 C 0,0.478 0.322,0.812 0.773,0.812 1.223,0.812 1.532,0.478 1.532,0 1.532,-0.464 1.236,-0.811 0.76,-0.811 0.309,-0.811 0,-0.464 0,0" />
        </g>
        <g transform="translate(335.1787,391.5502)" id="g376">
          <path id="path378" style="fill:#e8433d;fill-opacity:1;fill-rule:nonzero;stroke:none" d="m 0,0 c -0.694,0 -1.261,0.167 -1.65,-0.014 v 1.651 c 0.414,-0.51 0.972,-0.714 1.612,-0.714 0.59,0 0.854,0.225 0.854,0.408 0,0.664 -2.48,0.34 -2.48,1.857 0,0.826 0.724,1.333 1.809,1.333 0.643,0 1.149,-0.092 1.525,0.008 V 3.299 C 1.264,3.549 0.723,3.598 0.145,3.598 -0.258,3.598 -0.502,3.484 -0.502,3.25 -0.502,2.634 1.915,3.097 1.915,1.463 1.915,0.508 1.118,0 0,0" />
        </g>
        <g transform="translate(341.2998,394.9408)" id="g380">
          <path id="path382" style="fill:#e8433d;fill-opacity:1;fill-rule:nonzero;stroke:none" d="M 0,0 C -0.264,0.019 -0.897,0.22 -1.983,0.22 H -2.31 v -0.879 c 1.029,0.005 1.633,0.088 1.889,0.106 v -1.036 c -0.256,0.019 -0.86,0.102 -1.889,0.107 V -2.48 h 0.327 c 1.086,0 1.719,0.201 1.983,0.219 v -1.067 h -3.629 c 0.02,0.264 0.221,0.897 0.221,1.983 v 0.427 c 0,1.088 -0.201,1.722 -0.221,1.985 H 0 Z" />
        </g>
        <g transform="translate(345.8584,394.0238)" id="g384">
          <path id="path386" style="fill:#e8433d;fill-opacity:1;fill-rule:nonzero;stroke:none" d="m 0,0 v -0.59 c 0,-1.187 -0.653,-1.885 -1.909,-1.885 -1.255,0 -1.908,0.698 -1.908,1.885 V 0 c 0,1.086 -0.202,1.72 -0.22,1.983 h 1.544 C -2.511,1.72 -2.712,1.086 -2.712,0 v -0.59 c 0,-0.684 0.339,-0.904 0.935,-0.904 0.597,0 0.84,0.22 0.84,0.904 V 0 c 0,1.086 -0.2,1.72 -0.218,1.983 H 0.22 C 0.201,1.72 0,1.086 0,0" />
        </g>
        <g transform="translate(349.958,392.7426)" id="g388">
          <path id="path390" style="fill:#e8433d;fill-opacity:1;fill-rule:nonzero;stroke:none" d="m 0,0 v -1.13 h -3.378 c 0.019,0.263 0.22,0.899 0.22,1.984 v 0.427 c 0,1.086 -0.201,1.72 -0.22,1.985 h 1.569 C -1.827,3.001 -2.028,2.367 -2.028,1.281 V -0.22 h 0.044 c 1.086,0 1.719,0.201 1.984,0.22" />
        </g>
        <g transform="translate(354.1328,392.2465)" id="g392">
          <path id="path394" style="fill:#e8433d;fill-opacity:1;fill-rule:nonzero;stroke:none" d="m 0,0 v -0.652 h -0.201 l -0.495,0.298 c -0.287,-0.215 -0.672,-0.343 -1.087,-0.343 -1.256,0 -2.223,0.886 -2.223,2.198 v 0.125 c 0,1.312 0.967,2.198 2.285,2.198 0.592,0 1,-0.109 1.364,0.018 V 2.48 c -0.269,0.359 -0.747,0.421 -1.238,0.421 -0.785,0 -1.249,-0.464 -1.249,-1.275 V 1.501 c 0,-0.81 0.464,-1.211 1.186,-1.211 0.293,0 0.517,0.075 0.685,0.218 V 1.175 C -1.387,1.115 -1.603,1.029 -1.771,1.018 V 1.984 H 0.221 C 0.201,1.72 0,1.086 0,0" />
        </g>
        <g transform="translate(356.1484,393.597)" id="g396">
          <path id="path398" style="fill:#e8433d;fill-opacity:1;fill-rule:nonzero;stroke:none" d="M 0,0 C 0,-1.086 0.201,-1.722 0.22,-1.984 H -1.319 C -1.3,-1.722 -1.1,-1.086 -1.1,0 v 0.427 c 0,1.086 -0.2,1.719 -0.219,1.983 H 0.22 C 0.201,2.146 0,1.513 0,0.427 Z" />
        </g>
      </g>
    </g>
</g>
</svg>